<svg xmlns="http://www.w3.org/2000/svg" width="1600" height="900" viewBox="0 0 1600 900" fill="none">
  <defs>
    <linearGradient id="bg" x1="0" y1="0" x2="1" y2="1">
      <stop offset="0" stop-color="#0f3e1e"/>
      <stop offset="0.55" stop-color="#1a5c2a"/>
      <stop offset="1" stop-color="#2b7b3f"/>
    </linearGradient>
    <radialGradient id="gold" cx="0" cy="0" r="1" gradientTransform="translate(1260 220) rotate(138) scale(440 300)">
      <stop offset="0" stop-color="#e8c26c" stop-opacity="0.8"/>
      <stop offset="1" stop-color="#e8c26c" stop-opacity="0"/>
    </radialGradient>
  </defs>
  <rect width="1600" height="900" fill="url(#bg)"/>
  <rect x="-80" y="530" width="980" height="460" fill="#0a2a14" fill-opacity="0.35" transform="rotate(-8 -80 530)"/>
  <rect x="740" y="-180" width="860" height="520" fill="#0b2e16" fill-opacity="0.25" transform="rotate(12 740 -180)"/>
  <circle cx="1260" cy="220" r="360" fill="url(#gold)"/>
  <g stroke="#ffffff" stroke-opacity="0.25" stroke-width="2">
    <path d="M150 740C360 620 590 590 860 610"/>
    <path d="M110 790C350 670 590 640 930 668"/>
    <path d="M1020 520C1130 468 1270 470 1460 538"/>
  </g>
  <g>
    <circle cx="460" cy="330" r="84" fill="#ffffff" fill-opacity="0.1"/>
    <circle cx="460" cy="330" r="52" fill="#ffffff" fill-opacity="0.18"/>
    <rect x="534" y="294" width="210" height="72" rx="36" fill="#ffffff" fill-opacity="0.16"/>
  </g>
</svg>
